<svg xmlns="http://www.w3.org/2000/svg" xmlns:xlink="http://www.w3.org/1999/xlink" width="500" zoomAndPan="magnify" viewBox="0 0 375 374.999991" height="500" preserveAspectRatio="xMidYMid meet" version="1.0"><defs><clipPath id="3e3f50cbf0"><path d="M 103.074219 227.851562 L 146.8125 227.851562 L 146.8125 271.589844 L 103.074219 271.589844 Z M 103.074219 227.851562 " clip-rule="nonzero"/></clipPath><clipPath id="97b45f0446"><path d="M 124.945312 227.851562 C 112.867188 227.851562 103.074219 237.640625 103.074219 249.71875 C 103.074219 261.796875 112.867188 271.589844 124.945312 271.589844 C 137.023438 271.589844 146.8125 261.796875 146.8125 249.71875 C 146.8125 237.640625 137.023438 227.851562 124.945312 227.851562 Z M 124.945312 227.851562 " clip-rule="nonzero"/></clipPath><clipPath id="fd511719fe"><path d="M 227.777344 103 L 271.515625 103 L 271.515625 146.738281 L 227.777344 146.738281 Z M 227.777344 103 " clip-rule="nonzero"/></clipPath><clipPath id="ad545b861d"><path d="M 249.644531 103 C 237.566406 103 227.777344 112.789062 227.777344 124.867188 C 227.777344 136.945312 237.566406 146.738281 249.644531 146.738281 C 261.722656 146.738281 271.515625 136.945312 271.515625 124.867188 C 271.515625 112.789062 261.722656 103 249.644531 103 Z M 249.644531 103 " clip-rule="nonzero"/></clipPath></defs><path fill="#eeca16" d="M 0 375.027344 L 125.007812 375.027344 C 125.007812 305.988281 69.039062 250.015625 0 250.015625 Z M 0 375.027344 " fill-opacity="1" fill-rule="evenodd"/><path fill="#db0672" d="M 250.015625 0 C 319.054688 0 375.027344 55.96875 375.027344 125.007812 C 375.027344 194.046875 319.054688 250.015625 250.015625 250.015625 C 250.015625 180.980469 305.988281 125.007812 375.027344 125.007812 C 305.988281 125.007812 250.015625 69.039062 250.015625 0 Z M 250.015625 0 " fill-opacity="1" fill-rule="evenodd"/><path fill="#992800" d="M 250.015625 250.015625 C 180.980469 250.015625 125.007812 194.046875 125.007812 125.007812 C 125.007812 55.96875 180.980469 0 250.015625 0 C 250.015625 69.039062 194.046875 125.007812 125.007812 125.007812 C 194.046875 125.007812 250.015625 180.980469 250.015625 250.015625 Z M 250.015625 250.015625 " fill-opacity="1" fill-rule="evenodd"/><path fill="#aba5d8" d="M 0 125.007812 L 125.007812 125.007812 C 125.007812 194.046875 69.039062 250.015625 0 250.015625 Z M 0 125.007812 " fill-opacity="1" fill-rule="evenodd"/><path fill="#3c7f72" d="M 250.015625 250.015625 C 319.054688 250.015625 375.027344 305.988281 375.027344 375.027344 L 312.238281 375.027344 C 312.238281 340.660156 284.382812 312.804688 250.015625 312.804688 C 215.652344 312.804688 187.796875 340.660156 187.796875 375.027344 L 125.007812 375.027344 C 125.007812 305.988281 180.980469 250.015625 250.015625 250.015625 Z M 250.015625 250.015625 " fill-opacity="1" fill-rule="evenodd"/><path fill="#eeca16" d="M 125.007812 219.683594 C 141.765625 219.683594 155.34375 233.261719 155.34375 250.015625 C 155.34375 266.773438 141.765625 280.351562 125.007812 280.351562 C 108.253906 280.351562 94.671875 266.773438 94.671875 250.015625 C 94.671875 233.261719 108.253906 219.683594 125.007812 219.683594 Z M 125.007812 219.683594 " fill-opacity="1" fill-rule="evenodd"/><path fill="#3c7f72" d="M 250.015625 94.671875 C 266.773438 94.671875 280.351562 108.253906 280.351562 125.007812 C 280.351562 141.765625 266.773438 155.34375 250.015625 155.34375 C 233.261719 155.34375 219.683594 141.765625 219.683594 125.007812 C 219.683594 108.253906 233.261719 94.671875 250.015625 94.671875 Z M 250.015625 94.671875 " fill-opacity="1" fill-rule="evenodd"/><path fill="#3c7f72" d="M 36.472656 125.007812 C 41.6875 125.007812 46.894531 125.007812 52.105469 125.007812 C 52.105469 83.339844 52.105469 41.667969 52.105469 0 C 46.894531 0 41.6875 0 36.472656 0 C 36.472656 41.667969 36.472656 83.339844 36.472656 125.007812 Z M 0 125.007812 L 15.625 125.007812 L 15.625 0 L 0 0 Z M 109.429688 125.007812 L 125.054688 125.007812 L 125.054688 0 L 109.429688 0 Z M 72.957031 125.007812 C 78.160156 125.007812 83.375 125.007812 88.582031 125.007812 C 88.582031 83.339844 88.582031 41.667969 88.582031 0 C 83.375 0 78.160156 0 72.957031 0 C 72.957031 41.667969 72.957031 83.339844 72.957031 125.007812 Z M 72.957031 125.007812 " fill-opacity="1" fill-rule="evenodd"/><g clip-path="url(#3e3f50cbf0)"><g clip-path="url(#97b45f0446)"><path fill="#f3eb4b" d="M 103.074219 227.851562 L 146.8125 227.851562 L 146.8125 271.589844 L 103.074219 271.589844 Z M 103.074219 227.851562 " fill-opacity="1" fill-rule="nonzero"/></g></g><g clip-path="url(#fd511719fe)"><g clip-path="url(#ad545b861d)"><path fill="#69bbab" d="M 227.777344 103 L 271.515625 103 L 271.515625 146.738281 L 227.777344 146.738281 Z M 227.777344 103 " fill-opacity="1" fill-rule="nonzero"/></g></g></svg>